<?xml version="1.0" encoding="UTF-8" standalone="no"?>
<svg width="48px" height="48px" viewBox="0 0 48 48" version="1.1" xmlns="http://www.w3.org/2000/svg" xmlns:xlink="http://www.w3.org/1999/xlink" xmlns:sketch="http://www.bohemiancoding.com/sketch/ns">
    <!-- Generator: Sketch 3.3.2 (12043) - http://www.bohemiancoding.com/sketch -->
    <title>Facebook</title>
    <desc>Created with Sketch.</desc>
    <defs></defs>
    <g id="Page-1" stroke="none" stroke-width="1" fill="none" fill-rule="evenodd" sketch:type="MSPage">
        <g id="Facebook" sketch:type="MSLayerGroup" transform="translate(0.400000, 0.000000)" fill="#43619C">
            <path d="M23.7162,47.736 C10.659,47.736 0.0366,37.1136 0.0366,24.057 C0.0366,10.9998 10.659,0.3774 23.7162,0.3774 C36.7734,0.3774 47.3958,10.9998 47.3958,24.057 C47.3958,37.1136 36.7734,47.736 23.7162,47.736 L23.7162,47.736 Z M23.7162,2.1774 C11.6514,2.1774 1.8366,11.9922 1.8366,24.057 C1.8366,36.1212 11.6514,45.936 23.7162,45.936 C35.7804,45.936 45.5958,36.1212 45.5958,24.057 C45.5958,11.9922 35.7804,2.1774 23.7162,2.1774 L23.7162,2.1774 Z" id="Facebook-Circle" sketch:type="MSShapeGroup"></path>
            <path d="M34.7295,33.8544 C34.7295,34.5258 34.1853,35.07 33.5139,35.07 L27.9009,35.07 L27.9009,26.5404 L30.7641,26.5404 L31.1931,23.2158 L27.9009,23.2158 L27.9009,21.0936 C27.9009,20.1312 28.1685,19.4754 29.5485,19.4754 L31.3089,19.4742 L31.3089,16.5012 C31.0047,16.4604 29.9595,16.3704 28.7439,16.3704 C26.2059,16.3704 24.4683,17.9196 24.4683,20.7642 L24.4683,23.2158 L21.5979,23.2158 L21.5979,26.5404 L24.4683,26.5404 L24.4683,35.07 L13.9185,35.07 C13.2471,35.07 12.7029,34.5258 12.7029,33.8544 L12.7029,14.259 C12.7029,13.5876 13.2471,13.0434 13.9185,13.0434 L33.5139,13.0434 C34.1853,13.0434 34.7295,13.5876 34.7295,14.259 L34.7295,33.8544" sketch:type="MSShapeGroup"></path>
        </g>
    </g>
</svg>