<?xml version="1.0" encoding="UTF-8" standalone="no"?>
<svg width="26px" height="32px" viewBox="0 0 26 32" version="1.1" xmlns="http://www.w3.org/2000/svg" xmlns:xlink="http://www.w3.org/1999/xlink" xmlns:sketch="http://www.bohemiancoding.com/sketch/ns">
    <!-- Generator: Sketch 3.3.2 (12043) - http://www.bohemiancoding.com/sketch -->
    <title>Jekyll School Logo</title>
    <desc>Created with Sketch.</desc>
    <defs>
        <path d="M23.6380611,20.15643 C23.7243457,19.9444429 23.7976932,19.7610919 23.8581036,19.6063771 C23.9222148,19.4421844 24.0038108,19.2222833 24.1028917,18.946674 C24.2019727,18.6710647 24.2748263,18.4599597 24.3214526,18.313359 C24.3680789,18.1667583 24.4088769,18.0436137 24.4438467,17.9439252 C24.4788164,17.8442368 24.5050437,17.7621404 24.5225286,17.6976361 C24.5400134,17.6331318 24.5924681,17.4454829 24.6798924,17.1346894 C24.7673167,16.8238959 24.8430845,16.5336265 24.9071957,16.2638813 C24.9713069,15.994136 25.0441605,15.6804105 25.1257566,15.3227048 C25.2073526,14.9649991 25.2831204,14.6102254 25.3530599,14.2583837 C25.4229993,13.9065421 25.4841964,13.5341763 25.536651,13.1412864 C25.5891056,12.7483966 25.6357319,12.2763423 25.6765299,11.7251237 C25.717328,11.1739051 25.7726967,10.2063405 25.8426362,8.82242991 C25.9125757,7.43851933 25.9562878,6.30969397 25.9737727,5.43595382 L26,4.1253436 L25.9956288,4.12094557 C25.9927146,4.11801356 25.7843533,4.07549936 25.3705447,3.99340297 C24.9567362,3.91130658 24.7469177,3.87025838 24.7410894,3.87025838 C24.7352612,3.87025838 24.5167003,3.83507422 24.0854069,3.76470588 C23.6541134,3.69433755 23.383098,3.65035734 23.2723605,3.63276526 C23.161623,3.61517317 22.8876933,3.56532894 22.4505716,3.48323255 C22.0134499,3.40113616 21.754091,3.35129192 21.672495,3.33369984 C21.5908989,3.31610775 21.4102219,3.27505956 21.130464,3.21055525 C20.8507061,3.14605094 20.5622058,3.0727506 20.264963,2.99065421 C19.9677202,2.90855782 19.7229321,2.83818948 19.5305985,2.7795492 C19.338265,2.72090892 19.1809011,2.67106469 19.0585071,2.63001649 C18.936113,2.5889683 18.8341179,2.55378413 18.7525219,2.52446399 C18.6709258,2.49514385 18.4756781,2.42477552 18.1667787,2.31335899 C17.8578794,2.20194246 17.6218337,2.11398204 17.4586416,2.04947774 C17.2954495,1.98497343 17.0623179,1.88528496 16.7592468,1.75041231 C16.4561757,1.61553967 16.2944407,1.54663735 16.2740417,1.54370533 C16.2536427,1.54077332 15.938915,1.39417262 15.3298588,1.10390324 C14.7208025,0.813633865 14.3638198,0.64211105 14.2589106,0.589334799 C14.1540013,0.536558549 13.9383546,0.425142019 13.6119704,0.255085212 L13.1223941,0 L13.0087424,0 L12.8950908,0 L12.4142569,0.255085212 C12.093701,0.425142019 11.8255996,0.562946674 11.6099529,0.668499175 C11.3943062,0.774051677 11.1757453,0.879604178 10.9542703,0.985156679 C10.7327953,1.09070918 10.485093,1.20798974 10.2111634,1.33699835 C9.9372338,1.46600696 9.79006949,1.53197728 9.76967048,1.53490929 C9.74927146,1.5378413 9.58607935,1.60820964 9.28009415,1.74601429 C8.97410894,1.88381895 8.64626765,2.0201576 8.29657028,2.15503024 C7.9468729,2.28990288 7.71374131,2.37786329 7.59717552,2.41891149 C7.48060973,2.45995968 7.35821565,2.50100788 7.22999328,2.54205607 C7.1017709,2.58310427 6.92400807,2.64174455 6.69670477,2.71797691 C6.46940148,2.79420927 6.19838601,2.87630566 5.88365837,2.96426608 C5.56893073,3.0522265 5.1959202,3.14605094 4.76462677,3.24573942 C4.34340289,3.34310043 4.0027891,3.41529112 3.7427854,3.46231148 L23.6380612,20.15643 Z M20.8265061,25.1419643 C20.824329,25.1454479 20.8221961,25.148887 20.8201076,25.1522815 C20.7822237,25.2138538 20.726855,25.2930181 20.6540013,25.3897746 C20.5811477,25.4865311 20.5112082,25.5832875 20.4441829,25.680044 C20.3771576,25.7768004 20.304304,25.8764889 20.2256221,25.9791094 C20.1469401,26.0817299 20.0799148,26.1696903 20.0245461,26.2429907 C19.9691773,26.316291 19.8511544,26.4555617 19.6704775,26.6608026 C19.4898005,26.8660436 19.2770679,27.1006047 19.0322798,27.364486 C18.7874916,27.6283672 18.5718449,27.8541323 18.3853396,28.0417812 C18.1988343,28.2294301 18.0749832,28.3481767 18.0137861,28.3980209 C17.9525891,28.4478651 17.809796,28.5739417 17.5854069,28.7762507 C17.3610177,28.9785596 17.2240529,29.1017042 17.1745124,29.1456844 C17.124972,29.1896647 17.0025779,29.2981492 16.8073302,29.471138 C16.6120825,29.6441268 16.4838601,29.7555433 16.4226631,29.8053876 C16.361466,29.8552318 16.2915266,29.9138721 16.2128447,29.9813084 C16.1341627,30.0487447 16.0248823,30.1411032 15.8850034,30.2583837 C15.7451244,30.3756643 15.6387581,30.4621587 15.5659045,30.517867 C15.4930509,30.5735752 15.4231114,30.6234195 15.3560861,30.6673997 C15.2890607,30.7113799 15.1666667,30.7876122 14.9889038,30.8960968 C14.811141,31.0045813 14.6945752,31.0778816 14.6392065,31.1159978 C14.5838377,31.154114 14.5211836,31.1936962 14.4512441,31.2347444 C14.3813046,31.2757926 14.308451,31.3227048 14.2326833,31.375481 C14.1569155,31.4282573 14.1015467,31.4663735 14.066577,31.4898296 C14.0316073,31.5132857 13.9558395,31.5543339 13.8392737,31.6129742 C13.7227079,31.6716144 13.582829,31.7390508 13.4196369,31.8152831 C13.2564447,31.8915155 13.1427931,31.9413597 13.0786819,31.9648158 L12.9825151,32 L12.8776059,31.9736119 C12.8076664,31.9560198 12.7318987,31.9266997 12.6503026,31.8856515 C12.5687066,31.8446033 12.4317418,31.7742349 12.2394082,31.6745465 C12.0470746,31.574858 11.9363371,31.5132857 11.9071957,31.4898296 C11.8780542,31.4663735 11.8037436,31.4150632 11.6842636,31.3358988 C11.5647837,31.2567345 11.4744452,31.1980942 11.4132482,31.159978 C11.3520511,31.1218618 11.2325712,31.0485615 11.0548083,30.940077 C10.8770455,30.8315925 10.7546514,30.7553601 10.6876261,30.7113799 C10.6206008,30.6673997 10.5506613,30.6175554 10.4778077,30.5618472 C10.404954,30.5061389 10.3219009,30.4401686 10.2286483,30.3639362 C10.1353957,30.2877039 10.0115445,30.1836174 9.85709482,30.0516767 C9.70264515,29.9197361 9.56859449,29.8053876 9.45494284,29.7086311 C9.34129119,29.6118747 9.17518494,29.465274 8.95662408,29.268829 C8.73806321,29.0723841 8.59818426,28.9492395 8.53698722,28.8993953 C8.47579018,28.849551 8.34173952,28.7322705 8.13483524,28.5475536 C7.92793096,28.3628367 7.81282224,28.2587502 7.78950908,28.2352941 C7.76619592,28.211838 7.66274378,28.1077515 7.47915266,27.9230346 C7.29556153,27.7383178 7.16733916,27.6063771 7.09448554,27.5272128 C7.02163192,27.4480484 6.86135396,27.2721275 6.61365165,26.9994502 C6.36594934,26.726773 6.21732795,26.5596482 6.16778749,26.4980759 C6.11824703,26.4365036 6.04539341,26.3456111 5.94922663,26.2253986 C5.85305985,26.105186 5.77729209,26.0084295 5.72192334,25.9351292 C5.66655458,25.8618288 5.61118583,25.7855965 5.55581708,25.7064321 C5.50044833,25.6272677 5.44216543,25.5451713 5.38096839,25.4601429 C5.31977135,25.3751145 5.2644026,25.2988822 5.21486214,25.2314458 C5.16532168,25.1640095 5.12306658,25.1039032 5.08809684,25.051127 C5.0531271,24.9983507 5.00504371,24.9294484 4.94384667,24.84442 C4.88264963,24.7593916 4.83019502,24.6831592 4.78648285,24.6157229 C4.74277068,24.5482866 4.68448778,24.4603262 4.61163416,24.3518417 C4.53878054,24.2433572 4.48341179,24.1583288 4.44552791,24.0967565 C4.40764403,24.0351842 4.34644698,23.9384277 4.26193679,23.8064871 C4.17742659,23.6745465 4.12205783,23.583654 4.09583053,23.5338098 C4.06960323,23.4839655 3.99674961,23.3578889 3.87726967,23.15558 C3.75778973,22.953271 3.67910782,22.8213304 3.64122394,22.7597581 C3.60334006,22.6981858 3.50863035,22.529595 3.35709482,22.2539857 C3.20555929,21.9783764 3.09190764,21.7702034 3.01613988,21.6294667 C2.94037211,21.4887301 2.87334678,21.3567894 2.81506389,21.2336449 C2.75678099,21.1105003 2.67518494,20.9257834 2.57027572,20.6794942 C2.46536651,20.4332051 2.4129119,20.3071285 2.4129119,20.3012644 C2.4129119,20.2954004 2.3604573,20.1605278 2.25554808,19.8966465 C2.15063887,19.6327653 2.06904282,19.4245923 2.01075992,19.2721275 C1.95247702,19.1196628 1.87088097,18.8880337 1.76597176,18.5772402 C1.66106254,18.2664468 1.55615333,17.9351292 1.45124412,17.5832875 C1.3463349,17.2314458 1.22976911,16.8033718 1.10154674,16.2990654 C0.973324367,15.794759 0.882985878,15.4194612 0.830531271,15.1731721 C0.778076664,14.9268829 0.705223044,14.5691772 0.61197041,14.100055 C0.518717776,13.6309327 0.463349025,13.3230713 0.445864156,13.1764706 C0.428379287,13.0298699 0.390495405,12.5812718 0.332212508,11.8306762 C0.273929612,11.0800806 0.23604573,10.5142019 0.218560861,10.1330401 C0.201075992,9.75187832 0.180676978,9.3472604 0.15736382,8.91918637 C0.142336616,8.64325826 0.123677073,8.25403716 0.101385189,7.75152305 L20.8265061,25.1419643 Z" id="path-1"></path>
    </defs>
    <g id="Page-1" stroke="none" stroke-width="1" fill="none" fill-rule="evenodd" sketch:type="MSPage">
        <g id="logo" sketch:type="MSArtboardGroup" transform="translate(-137.000000, -134.000000)">
            <g sketch:type="MSLayerGroup" transform="translate(137.000000, 134.000000)">
                <mask id="mask-2" sketch:name="Mask" fill="white">
                    <use xlink:href="#path-1"></use>
                </mask>
                <use id="Mask" fill="#4F0606" sketch:type="MSShapeGroup" xlink:href="#path-1"></use>
                <text id="JEKYLL" sketch:type="MSTextLayer" mask="url(#mask-2)" font-family="Futura" font-size="6.5" font-style="condensed" font-weight="normal" letter-spacing="0.180000007" fill="#F2F2F2">
                    <tspan x="11" y="9">JEKYL</tspan>
                    <tspan x="23.5606446" y="9">L</tspan>
                </text>
                <text id="SCHOOL" sketch:type="MSTextLayer" mask="url(#mask-2)" font-family="Futura" font-size="4.5" font-style="condensed" font-weight="normal" letter-spacing="0.200000003" fill="#F2F2F2">
                    <tspan x="5" y="25">SCHOO</tspan>
                    <tspan x="15.8041992" y="25">L</tspan>
                </text>
            </g>
        </g>
    </g>
</svg>