<?xml version="1.0" encoding="UTF-8" standalone="no"?>
<svg width="48px" height="48px" viewBox="0 0 48 48" version="1.1" xmlns="http://www.w3.org/2000/svg" xmlns:xlink="http://www.w3.org/1999/xlink" xmlns:sketch="http://www.bohemiancoding.com/sketch/ns">
    <!-- Generator: Sketch 3.3.2 (12043) - http://www.bohemiancoding.com/sketch -->
    <title>LinkedIn</title>
    <desc>Created with Sketch.</desc>
    <defs></defs>
    <g id="Page-1" stroke="none" stroke-width="1" fill="none" fill-rule="evenodd" sketch:type="MSPage">
        <g id="LinkedIn" sketch:type="MSLayerGroup" fill="#187FB8">
            <path d="M23.7156,47.736 C10.659,47.736 0.0366,37.1136 0.0366,24.057 C0.0366,10.9998 10.659,0.3774 23.7156,0.3774 C36.7728,0.3774 47.3952,10.9998 47.3952,24.057 C47.3952,37.1136 36.7728,47.736 23.7156,47.736 L23.7156,47.736 Z M23.7156,2.1774 C11.6514,2.1774 1.8366,11.9922 1.8366,24.057 C1.8366,36.1212 11.6514,45.936 23.7156,45.936 C35.7804,45.936 45.5952,36.1212 45.5952,24.057 C45.5952,11.9922 35.7804,2.1774 23.7156,2.1774 L23.7156,2.1774 Z" id="Linkedin-Cirlce" sketch:type="MSShapeGroup"></path>
            <path d="M13.2069,20.4483 L17.5209,20.4483 L17.5209,34.1175 L13.2069,34.1175 L13.2069,20.4483 Z M29.3079,20.3169 C26.8365,20.3169 25.2879,21.6555 25.0017,22.5939 L25.0017,20.4483 L20.1555,20.4483 C20.2179,21.5877 20.1555,34.1175 20.1555,34.1175 L25.0017,34.1175 L25.0017,26.7207 C25.0017,26.3097 24.9825,25.8987 25.1073,25.6035 C25.4403,24.7815 26.1561,23.9283 27.4431,23.9283 C29.1261,23.9283 29.8911,25.1925 29.8911,27.0441 L29.8911,34.1175 L34.7829,34.1175 L34.7829,26.5173 C34.7829,22.2831 32.3739,20.3169 29.3079,20.3169 Z M15.2841,13.9959 C13.6911,13.9959 12.6489,15.0189 12.6489,16.3689 C12.6489,17.6937 13.6617,18.7383 15.2229,18.7383 L15.2541,18.7383 C16.8759,18.7383 17.8857,17.6895 17.8857,16.3653 C17.8545,15.0165 16.8759,13.9959 15.2841,13.9959 Z" id="Linkedin" sketch:type="MSShapeGroup"></path>
        </g>
    </g>
</svg>