<?xml version="1.0" encoding="UTF-8" standalone="no"?>
<svg width="47px" height="48px" viewBox="0 0 47 48" version="1.1" xmlns="http://www.w3.org/2000/svg" xmlns:xlink="http://www.w3.org/1999/xlink" xmlns:sketch="http://www.bohemiancoding.com/sketch/ns">
    <!-- Generator: Sketch 3.3.2 (12043) - http://www.bohemiancoding.com/sketch -->
    <title>Twitter</title>
    <desc>Created with Sketch.</desc>
    <defs></defs>
    <g id="Page-1" stroke="none" stroke-width="1" fill="none" fill-rule="evenodd" sketch:type="MSPage">
        <g id="Twitter" sketch:type="MSLayerGroup" fill="#24A9E6">
            <path d="M23.4154025,47.736 C10.5240759,47.736 0.0355443038,37.1136 0.0355443038,24.057 C0.0355443038,10.9998 10.5240759,0.3774 23.4154025,0.3774 C36.3073215,0.3774 46.7952608,10.9998 46.7952608,24.057 C46.7952608,37.1136 36.3073215,47.736 23.4154025,47.736 L23.4154025,47.736 Z M23.4154025,2.1774 C11.5039139,2.1774 1.81275949,11.9922 1.81275949,24.057 C1.81275949,36.1212 11.5039139,45.936 23.4154025,45.936 C35.3274835,45.936 45.0180456,36.1212 45.0180456,24.057 C45.0180456,11.9922 35.3274835,2.1774 23.4154025,2.1774 L23.4154025,2.1774 Z" id="Twitter-Circle" sketch:type="MSShapeGroup"></path>
            <path d="M33.8971215,15.0396 C33.0168076,15.5808 32.0440785,15.9744 31.0044076,16.185 C30.1762253,15.267 28.9926,14.6934 27.6822,14.6934 C25.1704025,14.6934 23.1319367,16.8102 23.1319367,19.4208 C23.1319367,19.791 23.1710354,20.151 23.2492329,20.4972 C19.4661342,20.2998 16.1125291,18.42 13.8661291,15.5562 C13.473957,16.257 13.2500278,17.07 13.2500278,17.9352 C13.2500278,19.575 14.0533291,21.0222 15.2754608,21.87 C14.5302152,21.8472 13.8270304,21.6324 13.2121139,21.2802 L13.2121139,21.3384 C13.2121139,23.6298 14.7813949,25.5414 16.8654759,25.974 C16.4839671,26.085 16.0811316,26.1402 15.6658557,26.1402 C15.3726152,26.1402 15.0864835,26.112 14.809238,26.0568 C15.3886101,27.9342 17.0686709,29.3016 19.0609291,29.3376 C17.5034962,30.6066 15.5396734,31.3626 13.4076076,31.3626 C13.0403165,31.3626 12.6771722,31.341 12.3217291,31.2978 C14.3359063,32.637 16.7298152,33.42 19.2996684,33.42 C27.6733139,33.42 32.2508278,26.2176 32.2508278,19.9698 C32.2508278,19.764 32.2472734,19.5588 32.2395722,19.3572 C33.1287722,18.69 33.9012684,17.8584 34.5090759,16.9104 C33.6939266,17.286 32.8159823,17.5404 31.8953848,17.6544 C32.8355316,17.07 33.557081,16.143 33.8971215,15.0396" sketch:type="MSShapeGroup"></path>
        </g>
    </g>
</svg>