<?xml version="1.0" encoding="UTF-8" standalone="no"?>
<svg width="300px" height="300px" viewBox="0 0 300 300" version="1.1" xmlns="http://www.w3.org/2000/svg" xmlns:xlink="http://www.w3.org/1999/xlink">
    <title>faith</title>
    <desc>Avatar for faith</desc>
    <g id="Page-1" stroke="none" stroke-width="1" fill="none" fill-rule="evenodd">
        <g id="faith">
            <circle cx="150" cy="394" r="173" fill="#C0392B"/>
            <rect x="118" y="202" width="65" height="22" fill="#F7DCC9"/>
            <circle cx="150" cy="123" r="90" fill="#F7DCC9"/>
            <g transform="translate(100,67)">
        <ellipse cx="18" cy="34.5" rx="18" ry="34.5" fill="#F5F5F5"/>
        <ellipse cx="18" cy="39.5" rx="18" ry="29.5" fill="#7A5230"/>
        <ellipse cx="28" cy="57.5" rx="3" ry="6.5" fill="#F5F5F5"/>
        <ellipse cx="21.5" cy="39.5" rx="9.5" ry="14.5" fill="#222222"/>
        <ellipse cx="12" cy="19.5" rx="6" ry="12.5" fill="#F5F5F5"/>
    </g>
            <g transform="translate(165,67)">
        <ellipse cx="18" cy="34.5" rx="18" ry="34.5" fill="#F5F5F5"/>
        <ellipse cx="18" cy="39.5" rx="18" ry="29.5" fill="#7A5230"/>
        <ellipse cx="28" cy="57.5" rx="3" ry="6.5" fill="#F5F5F5"/>
        <ellipse cx="21.5" cy="39.5" rx="9.5" ry="14.5" fill="#222222"/>
        <ellipse cx="12" cy="19.5" rx="6" ry="12.5" fill="#F5F5F5"/>
    </g>
            <circle cx="70.9" cy="84.4" r="16" fill="#8B3A1E"/><circle cx="90.4" cy="58.3" r="16" fill="#8B3A1E"/><circle cx="118.0" cy="41.0" r="16" fill="#8B3A1E"/><circle cx="150.0" cy="35.0" r="16" fill="#8B3A1E"/><circle cx="182.0" cy="41.0" r="16" fill="#8B3A1E"/><circle cx="209.6" cy="58.3" r="16" fill="#8B3A1E"/><circle cx="229.1" cy="84.4" r="16" fill="#8B3A1E"/>
            <rect x="100.0" y="74.0" width="36" height="9" rx="4.5" fill="#8B3A1E" transform="rotate(0 118 78.5)"/><rect x="165.0" y="74.0" width="36" height="9" rx="4.5" fill="#8B3A1E" transform="rotate(0 183 78.5)"/>
            <path d="M 133.0,162 Q 150,177 167.0,162" fill="none" stroke="#8B3A3A" stroke-width="8" stroke-linecap="round"/>
        </g>
    </g>
</svg>
